<svg width="11" height="10" viewBox="0 0 11 10" fill="none" xmlns="http://www.w3.org/2000/svg">
<path d="M10.3081 1.43147H9.05861C9.04191 1.42567 9.02453 1.42191 9.00692 1.42018H7.67659V0.316846C7.67666 0.23393 7.64416 0.154325 7.58622 0.0951049C7.52821 0.0358904 7.44936 0.00172971 7.36652 0H4.22031C4.13626 0 4.05568 0.0333324 3.99631 0.0927723C3.93687 0.152212 3.90347 0.232796 3.90347 0.316844V1.42018H2.5799C2.56229 1.42191 2.54491 1.42567 2.5282 1.43146H1.27875C1.16552 1.43146 1.06092 1.49181 1.00435 1.58985C0.947769 1.68789 0.947769 1.80864 1.00435 1.90668C1.06093 2.00472 1.16552 2.06514 1.27875 2.06514H2.2967L3.11923 9.71687C3.12804 9.79475 3.1652 9.8666 3.22367 9.91889C3.28205 9.97111 3.35767 9.99993 3.43607 10H8.1552C8.23277 9.99887 8.30726 9.96945 8.36482 9.91738C8.42231 9.86524 8.4588 9.79399 8.46752 9.71687L9.28998 2.07631H10.308C10.4212 2.07631 10.5258 2.01597 10.5824 1.91793C10.639 1.81989 10.639 1.69906 10.5824 1.60109C10.5258 1.50305 10.4212 1.44263 10.308 1.44263L10.3081 1.43147ZM4.54398 0.633682H7.04281V1.42018H4.54398V0.633682ZM7.8676 9.36176H3.7192L2.9327 2.07639H8.65402L7.8676 9.36176Z" fill="#E41D1D"/>
<path d="M5.7934 8.61865C5.87744 8.61865 5.95803 8.58524 6.01747 8.52588C6.07691 8.46644 6.11024 8.38586 6.11024 8.30181V3.1333C6.11024 3.02006 6.0499 2.91547 5.95186 2.8589C5.85382 2.80224 5.73299 2.80224 5.63495 2.8589C5.53691 2.91548 5.47656 3.02007 5.47656 3.1333V8.30181C5.47656 8.38585 5.5099 8.46644 5.56933 8.52588C5.62877 8.58524 5.70936 8.61865 5.79341 8.61865H5.7934Z" fill="#E41D1D"/>
<path d="M4.54616 8.61707H4.55963C4.6433 8.61361 4.72215 8.57712 4.77904 8.51565C4.83585 8.45418 4.86609 8.37269 4.86301 8.28901L4.67197 3.12051L4.67205 3.12043C4.67032 3.03579 4.63412 2.95543 4.57175 2.89809C4.5093 2.84084 4.42623 2.81157 4.34167 2.81706C4.258 2.8206 4.17915 2.85709 4.12234 2.91856C4.06545 2.98003 4.03528 3.06152 4.03829 3.14519L4.22933 8.3137C4.23332 8.39519 4.26838 8.47208 4.32737 8.52851C4.38628 8.58486 4.46461 8.61661 4.54616 8.61707L4.54616 8.61707Z" fill="#E41D1D"/>
<path d="M7.02967 8.61638H7.04088C7.1244 8.61827 7.20529 8.58727 7.26623 8.53016C7.3271 8.47297 7.36321 8.3942 7.36675 8.31075L7.55779 3.14224H7.55771C7.5608 3.05857 7.53055 2.97709 7.47374 2.91561C7.41686 2.85414 7.33801 2.81764 7.25433 2.81411C7.16878 2.8053 7.08346 2.83292 7.01928 2.89025C6.9551 2.94751 6.91808 3.02922 6.91725 3.11531L6.72396 8.28381H6.72404C6.71975 8.36861 6.74969 8.4516 6.80718 8.51412C6.86459 8.57665 6.94479 8.61352 7.02967 8.61638L7.02967 8.61638Z" fill="#E41D1D"/>
</svg>
