<svg width="48" height="49" viewBox="0 0 48 49" fill="none" xmlns="http://www.w3.org/2000/svg">
<rect y="0.5" width="48" height="48" rx="24" fill="#2D7775" fill-opacity="0.08"/>
<path d="M14.001 32.5H30.001" stroke="#2D7775" stroke-width="1.94997" stroke-linecap="round" stroke-linejoin="round"/>
<path d="M15.825 24.666C15.55 24.466 15.3 24.216 15 23.341C14.9186 23.124 14.6111 22.0361 14.35 21.041C14.1297 20.2016 13.9335 19.4355 14.025 19.241C14.1 19.041 14.2 18.891 14.525 18.691C14.725 18.568 15.75 18.316 15.95 18.266C16.15 18.216 16.425 18.191 16.65 18.266C17.075 18.341 17.95 19.616 18.175 19.766C18.275 19.866 18.6 20.1569 18.975 20.191C19.25 20.216 19.525 20.141 19.825 20.016C20.1 19.9014 25.525 17.266 26.025 17.041C30.1 15.341 33.06 18.136 33.51 18.736C33.975 19.316 34.075 19.491 33.95 19.991C33.7884 20.516 33.35 20.616 33.1 20.691C32.8499 20.766 29.4 21.691 28.05 22.066C27.7551 22.162 27.6111 22.3549 27.575 22.391C27.4 22.641 26.605 24.341 26.38 24.716C26.225 25.116 25.8 25.616 25.25 25.816C24.675 26.016 23.675 26.241 23.45 26.316C23.225 26.391 22.7 26.541 22.525 26.491C22.3 26.441 22.085 26.216 22.185 25.866C22.285 25.516 22.475 24.541 22.5 24.391C22.525 24.241 22.775 23.616 22.5 23.591C22.45 23.516 21.925 23.741 21.15 23.916C20.5742 24.0781 19.9712 24.2385 19.55 24.341C17.925 24.816 17.0449 24.941 16.85 24.941C16.475 24.941 16.2 24.891 15.825 24.666Z" stroke="#2D7775" stroke-width="1.94997"/>
</svg>
