<svg width="48" height="48" viewBox="0 0 48 48" fill="none" xmlns="http://www.w3.org/2000/svg">
<rect width="48" height="48" rx="24" fill="#2D7775" fill-opacity="0.08"/>
<path d="M20.6157 22.2876C22.1341 22.5841 23.6719 21.9097 23.6719 21.1875C23.6719 20.6343 22.6896 20.0156 21.375 20.0156C20.1449 20.0156 19.0781 20.5931 19.0781 21.1875C19.0781 21.6439 19.7392 22.1169 20.6157 22.2876ZM28.0566 25.7344H30.7031V24.0379C29.949 24.7512 28.9985 25.3086 28.0566 25.7344Z" fill="#2D7775"/>
<path d="M14.1266 23.728C15.4291 24.5274 17.1822 25.1767 18.9363 25.5095C24.2974 26.5281 30.7031 23.8394 30.7031 21.1875C30.7031 19.5305 29.6861 17.9988 27.8394 16.8747C26.1017 15.8169 23.8059 15.2344 21.375 15.2344C16.3699 15.2344 12 17.7517 12 21.1875C12 22.0027 12.7855 22.9049 14.1266 23.728ZM17.7028 20.8466C17.9384 19.5508 19.4828 18.6094 21.375 18.6094C23.4515 18.6094 25.0781 19.7418 25.0781 21.1875C25.0781 22.6332 23.4515 23.7656 21.375 23.7656C21.0248 23.7656 20.6788 23.7328 20.3465 23.6678C18.7469 23.3563 17.6719 22.3595 17.6719 21.1875C17.6719 21.0732 17.6823 20.9585 17.7028 20.8466Z" fill="#2D7775"/>
<path d="M21.375 27.1406C20.4543 27.1406 19.5456 27.0566 18.6741 26.891C16.4667 26.4723 13.6555 25.4549 12 23.9254V28.3124C12 29.6525 12.9571 30.8867 14.6101 31.7879C15.543 32.2962 16.5748 32.6146 17.6768 32.7344C17.73 32.7402 17.6865 32.7383 18.7969 32.74V30.2073C18.7969 29.8287 19.0879 29.5029 19.4661 29.4851C19.8698 29.4661 20.2031 29.7878 20.2031 30.1874V32.7422L22.5469 32.7458V30.2073C22.5469 29.8287 22.8378 29.5029 23.216 29.4851C23.6198 29.4661 23.9531 29.7878 23.9531 30.1874V32.748L26.2969 32.7516V30.2073C26.2969 29.8287 26.5878 29.5029 26.966 29.4851C27.3698 29.4661 27.7031 29.7878 27.7031 30.1874V32.7539L30.0469 32.7575V30.2073C30.0469 29.8287 30.3378 29.5029 30.716 29.4851C31.1198 29.4661 31.4531 29.7878 31.4531 30.1874V32.7597L35.2958 32.7656C35.6637 32.7656 36 32.4775 36 32.0504V27.8437C36 27.4554 35.6852 27.1406 35.2969 27.1406H21.375Z" fill="#2D7775"/>
</svg>
