<svg width="48" height="48" viewBox="0 0 48 48" fill="none" xmlns="http://www.w3.org/2000/svg">
<rect width="48" height="48" rx="24" fill="#2D7775" fill-opacity="0.08"/>
<path d="M29 28V20C29 17.643 29 16.4645 28.2678 15.7322C27.5355 15 26.357 15 24 15H20C17.643 15 16.4645 15 15.7322 15.7322C15 16.4645 15 17.643 15 20V28C15 30.357 15 31.5355 15.7322 32.2678C16.4645 33 17.643 33 20 33H24C26.357 33 27.5355 33 28.2678 32.2678C29 31.5355 29 30.357 29 28Z" stroke="#2D7775" stroke-width="1.5"/>
<path d="M23 33H29C30.8856 33 31.8284 33 32.4142 32.4142C33 31.8284 33 30.8856 33 29V22C33 20.1144 33 19.1716 32.4142 18.5858C31.8284 18 30.8856 18 29 18" stroke="#2D7775" stroke-width="1.5"/>
<path d="M25 23V25" stroke="#2D7775" stroke-width="1.5" stroke-linecap="round"/>
</svg>
