<svg width="48" height="48" viewBox="0 0 48 48" fill="none" xmlns="http://www.w3.org/2000/svg">
<rect width="48" height="48" rx="24" fill="#2D7775" fill-opacity="0.08"/>
<path d="M23.2534 12V15.6768H24.7447V12H23.2534ZM16.2716 15.5069C16.8463 16.0815 18.3005 17.5358 18.8742 18.1084C19.2449 17.7387 19.5591 17.4235 19.9309 17.0559C19.3562 16.4802 17.902 15.0259 17.3273 14.4512C16.9759 14.8036 16.624 15.1555 16.2716 15.5069ZM28.0692 17.0548C28.439 17.4225 28.7541 17.7376 29.1249 18.1073C29.9915 17.2396 30.8587 16.3724 31.7264 15.5058C31.3567 15.1371 31.0405 14.824 30.6708 14.4512C29.8039 15.3193 28.9367 16.1872 28.0692 17.0548ZM30.5019 21.4309V22.9253H34.1807V21.4309H30.5019ZM13.8194 21.4309C13.8194 21.9572 13.8184 22.4 13.8184 22.9232C14.6299 22.9243 16.6867 22.9243 17.4982 22.9263V21.432C16.6867 21.4309 14.6299 21.4309 13.8194 21.4309ZM27.2834 27.5053H20.7187C19.5467 27.5053 18.5848 28.5836 18.5848 29.9019V36H29.4184V29.9019C29.4174 28.5836 28.4575 27.5053 27.2834 27.5053ZM23.997 26.4476C26.0526 26.4476 27.7098 24.7894 27.7098 22.742C27.7098 20.6924 26.0527 19.0333 23.997 19.0333C21.9526 19.0333 20.2955 20.6904 20.2955 22.742C20.2965 24.7884 21.9515 26.4476 23.997 26.4476Z" fill="#2D7775"/>
</svg>
