<svg width="48" height="48" viewBox="0 0 48 48" fill="none" xmlns="http://www.w3.org/2000/svg">
<rect width="48" height="48" rx="24" fill="#2D7775" fill-opacity="0.08"/>
<g clip-path="url(#clip0_1084_5897)">
<path d="M33.9529 28.8268C33.6125 28.6398 33.185 28.7642 32.9981 29.1045C32.8111 29.4448 32.9355 29.8723 33.2758 30.0593C34.1134 30.5194 34.5938 31.0295 34.5938 31.4588C34.5938 31.9838 33.8498 32.7976 31.7619 33.5069C29.6992 34.2078 26.9426 34.5937 24 34.5937C21.0574 34.5937 18.3008 34.2078 16.2381 33.5069C14.1502 32.7976 13.4062 31.9838 13.4062 31.4588C13.4062 31.0295 13.8866 30.5194 14.7242 30.0592C15.0645 29.8723 15.1889 29.4448 15.0019 29.1044C14.8149 28.7641 14.3875 28.6398 14.0471 28.8267C13.1132 29.3398 12 30.2129 12 31.4588C12 32.4138 12.6568 33.7754 15.7857 34.8385C17.9903 35.5875 20.9076 36 24 36C27.0924 36 30.0097 35.5875 32.2143 34.8385C35.3432 33.7754 36 32.4138 36 31.4588C36 30.2129 34.8868 29.3398 33.9529 28.8268Z" fill="#2D7775"/>
<path d="M18.6912 32.4905C20.1186 32.8937 22.0038 33.1158 23.9997 33.1158C25.9956 33.1158 27.8809 32.8937 29.3082 32.4905C31.0545 31.9972 31.9399 31.2831 31.9399 30.3682C31.9399 29.4532 31.0545 28.7392 29.3082 28.246C28.9206 28.1365 28.499 28.0404 28.0508 27.9585C27.7989 28.3933 27.5439 28.8263 27.2856 29.2573C27.7817 29.3317 28.2475 29.423 28.6705 29.5308C29.9557 29.8581 30.4252 30.2266 30.5217 30.3682C30.4251 30.5099 29.9557 30.8784 28.6706 31.2057C27.4542 31.5155 25.8893 31.6922 24.241 31.708C24.1607 31.7141 24.0802 31.7172 23.9997 31.7173C23.9187 31.7173 23.8383 31.7139 23.7584 31.708C22.1101 31.6922 20.5452 31.5156 19.3288 31.2057C18.0437 30.8784 17.5742 30.5099 17.4777 30.3682C17.5742 30.2266 18.0437 29.8581 19.3289 29.5308C19.7519 29.4231 20.2177 29.3317 20.7138 29.2573C20.4472 28.812 20.1921 28.379 19.9487 27.9585C19.5005 28.0405 19.0788 28.1365 18.6912 28.246C16.945 28.7392 16.0596 29.4533 16.0596 30.3682C16.0596 31.2831 16.945 31.9972 18.6912 32.4905Z" fill="#2D7775"/>
<path d="M24.0001 30.311C24.626 30.311 25.1946 29.992 25.5211 29.4578C27.8091 25.7145 30.5364 20.7811 30.5364 18.5362C30.5364 14.9321 27.6042 12 24.0001 12C20.396 12 17.4639 14.9321 17.4639 18.5362C17.4639 20.7811 20.1912 25.7145 22.4791 29.4578C22.8056 29.992 23.3742 30.311 24.0001 30.311ZM21.3729 18.0874C21.3729 16.6388 22.5515 15.4603 24.0001 15.4603C25.4487 15.4603 26.6273 16.6388 26.6273 18.0874C26.6273 19.536 25.4487 20.7146 24.0001 20.7146C22.5515 20.7146 21.3729 19.5361 21.3729 18.0874Z" fill="#2D7775"/>
</g>
<defs>
<clipPath id="clip0_1084_5897">
<rect width="24" height="24" fill="white" transform="translate(12 12)"/>
</clipPath>
</defs>
</svg>
