<svg width="48" height="48" viewBox="0 0 48 48" fill="none" xmlns="http://www.w3.org/2000/svg">
<rect width="48" height="48" rx="24" fill="#2D7775" fill-opacity="0.08"/>
<g clip-path="url(#clip0_1084_5939)">
<path d="M32.0111 31.7344C32.0111 32.7469 30.6236 33.6328 28.5095 34.1625L26.2689 33.1266C32.3298 32.1375 29.3486 29.6063 24.0002 29.6672C20.8877 29.6672 18.3658 30.4781 18.3658 31.4766C18.3658 32.3485 20.2877 33.075 22.847 33.2438L23.0392 32.4938L26.0392 33.8813L22.2517 35.5922L22.5002 34.6172C18.797 34.3594 15.9939 33.1641 15.9939 31.7297C16.2752 27.8531 31.7298 27.8578 32.0111 31.7344ZM33.347 19.5844C33.347 22.8422 33.3423 30.0656 33.3423 33.2625C35.0064 32.5406 35.9486 31.6453 35.9486 30.7688V17.8828C35.2736 18.675 34.308 19.1813 33.347 19.5844ZM29.3205 15.7453V26.5641C29.9017 26.6719 30.4877 26.7797 31.0548 26.925V16.2188L29.3205 15.7453ZM27.6048 16.1391V26.3297C27.9892 26.3719 28.3689 26.4235 28.7486 26.4703V15.7641L27.6048 16.1391ZM25.8048 18.6188V26.1797C26.2173 26.2125 26.6298 26.236 27.0377 26.2688V19.0406L25.8048 18.6188ZM24.4642 18.961V26.1422C24.7173 26.1516 24.9752 26.1563 25.233 26.161V18.6469L24.4642 18.961ZM23.1236 20.7844V26.1469C23.3814 26.1375 23.6392 26.1375 23.8923 26.1375V21.0188L23.1236 20.7844ZM21.3189 21.0844V26.2406C21.7173 26.2125 22.1298 26.1797 22.5517 26.1656V20.7656L21.3189 21.0844ZM19.9783 17.1375V26.3766C20.2314 26.3438 20.4939 26.3156 20.747 26.2922V17.5031L19.9783 17.1375ZM18.1783 17.6016V26.6531C18.5627 26.5781 18.9798 26.5125 19.4111 26.4516V17.1047L18.1783 17.6016ZM35.9533 16.4672C35.9533 14.2688 30.483 12.4078 24.0048 12.4078C17.5267 12.4078 12.0517 14.2688 12.0517 16.4672C12.1314 17.5078 12.9517 18.1266 14.4095 18.8531C14.6392 19.0125 15.2205 19.05 15.2345 19.3922V27.436C15.9517 27.1781 16.7486 26.9578 17.6064 26.775V17.4094C17.6064 17.2969 17.6767 17.1891 17.7845 17.1469L19.5892 16.4203C19.6595 16.3969 19.7392 16.3969 19.8048 16.425C19.8189 16.4297 21.1408 17.0672 21.1595 17.0719C21.258 17.1188 21.3236 17.2219 21.3236 17.3297V20.4985C21.4127 20.4891 22.8705 20.0578 22.922 20.1281L23.897 20.4282V18.7735C23.897 18.6563 23.9673 18.5531 24.0752 18.5063C24.1033 18.5063 25.5377 17.8828 25.5236 17.9391C25.5564 17.9344 25.5845 17.9485 25.6127 17.9485L27.0377 18.4406V15.9328C27.0377 15.811 27.1127 15.6985 27.2345 15.661L28.9502 15.0985C29.0017 15.0938 29.0627 15.0891 29.1142 15.0938L31.4205 15.7266C31.547 15.7594 31.6314 15.8719 31.6314 15.9985V27.0703C32.0298 27.1828 32.4189 27.3 32.7752 27.4266V19.3922C32.7752 19.275 32.8455 19.1672 32.958 19.125C34.4439 18.4875 35.8314 17.7844 35.9533 16.4672ZM12.3189 18.1781C12.2439 18.1031 12.1736 18.0328 12.1033 17.9531V30.3516C12.0892 30.4922 12.0377 30.6281 12.047 30.7688C12.047 31.65 12.9939 32.55 14.658 33.2672V19.5844C13.8189 19.2328 12.9752 18.8016 12.3189 18.1781Z" fill="#2D7775"/>
</g>
<defs>
<clipPath id="clip0_1084_5939">
<rect width="24" height="24" fill="white" transform="translate(12 12)"/>
</clipPath>
</defs>
</svg>
