<svg width="500" height="500" viewBox="0 0 500 500" fill="none" xmlns="http://www.w3.org/2000/svg">
<g clip-path="url(#clip0_1534_1250)">
<path d="M500 0H0V500H500V0Z" fill="white"/>
<path d="M119.661 381.34C118.941 381.61 116.401 376.13 116.171 375.59C114.045 370.541 113.416 364.987 114.361 359.59C115.224 354.411 117.1 349.453 119.881 345C122.131 341.52 125.191 338 128.881 336.94C129.928 336.624 131.048 336.647 132.081 337.006C133.114 337.366 134.007 338.042 134.631 338.94C135.919 340.902 136.667 343.168 136.801 345.51C137.491 352.87 135.801 359.98 133.461 366.61C131.711 371.61 129.331 376.96 124.961 379.25C123.242 380.061 121.471 380.759 119.661 381.34Z" fill="#E9A431"/>
<path d="M114.5 422.718C115.2 411.638 118.29 377.718 125.58 356.238" stroke="#1A004D" stroke-width="0.39" stroke-miterlimit="10"/>
<path d="M108.661 382.67C109.151 382.89 111.021 379.3 111.191 378.95C112.775 375.582 113.325 371.82 112.771 368.14C112.268 364.527 111.076 361.044 109.261 357.88C107.781 355.38 105.731 352.8 103.181 351.88C102.489 351.604 101.726 351.558 101.006 351.749C100.286 351.939 99.6458 352.357 99.1813 352.94C98.2399 354.214 97.6689 355.722 97.5313 357.3C96.9013 362.3 97.9613 367.22 99.4113 371.86C100.511 375.39 102.051 379.15 105.021 380.95C106.198 381.598 107.414 382.172 108.661 382.67Z" fill="#E9A431"/>
<path d="M99.7908 397.339C100.321 397.339 100.911 393.179 100.961 392.779C101.377 389.083 100.68 385.347 98.9608 382.049C97.3809 378.949 95.1582 376.222 92.4408 374.049C90.2708 372.379 87.5508 370.869 84.8908 371.139C84.1225 371.218 83.3935 371.518 82.792 372.002C82.1904 372.487 81.742 373.135 81.5008 373.869C81.0395 375.416 80.9912 377.057 81.3608 378.629C82.3608 383.519 84.9108 387.629 87.7408 391.329C89.8808 394.119 92.5108 396.939 95.8408 397.329C97.1558 397.419 98.4753 397.422 99.7908 397.339Z" fill="#E9A431"/>
<path d="M113.94 424.579C113.94 424.579 112.29 389.849 104.18 365.379" stroke="#1A004D" stroke-width="0.39" stroke-miterlimit="10"/>
<path d="M122.7 406.059C122.18 405.909 122.41 401.719 122.44 401.319C122.721 397.68 124.118 394.216 126.44 391.399C128.583 388.825 131.285 386.773 134.34 385.399C136.78 384.349 139.72 383.609 142.26 384.579C142.993 384.862 143.635 385.339 144.118 385.959C144.601 386.579 144.905 387.319 145 388.099C145.155 389.698 144.882 391.31 144.21 392.769C142.29 397.269 139 400.619 135.54 403.439C132.91 405.589 129.81 407.629 126.54 407.109C125.237 406.849 123.954 406.498 122.7 406.059Z" fill="#E8F0FE"/>
<path d="M115.711 422.94C116.091 422.06 120.201 406.06 130.491 396.42" stroke="#1A004D" stroke-width="0.39" stroke-miterlimit="10"/>
<path d="M113.1 423.6C113.1 423.6 103.74 400.37 92 385.68" stroke="#1A004D" stroke-width="0.39" stroke-miterlimit="10"/>
<path d="M99.1396 444.309H129.22L134.27 411.859H94.0996L99.1396 444.309Z" fill="#2D7775"/>
<path d="M134.19 409.779H94.1698C93.2972 409.779 92.5898 410.487 92.5898 411.359V417.209C92.5898 418.082 93.2972 418.789 94.1698 418.789H134.19C135.062 418.789 135.77 418.082 135.77 417.209V411.359C135.77 410.487 135.062 409.779 134.19 409.779Z" fill="#2D7775"/>
<path d="M387.88 211.189C387.88 253.656 371.011 294.383 340.982 324.411C310.954 354.439 270.227 371.309 227.76 371.309C139.32 371.309 62.7605 299.489 67.6305 211.189C73.2205 109.099 140.3 48.6591 227.76 51.0591C316.16 53.4891 387.88 122.749 387.88 211.189Z" fill="#E8F0FE"/>
<path d="M309.85 110.33H133.59C127.89 110.33 123.27 114.95 123.27 120.65V434.3C123.27 440 127.89 444.62 133.59 444.62H309.85C315.549 444.62 320.17 440 320.17 434.3V120.65C320.17 114.95 315.549 110.33 309.85 110.33Z" fill="#2D7775"/>
<path d="M136.921 437.1C134.984 437.1 133.127 436.331 131.756 434.962C130.385 433.593 129.614 431.737 129.611 429.8V125.14C129.617 123.204 130.389 121.35 131.759 119.984C133.13 118.617 134.986 117.85 136.921 117.85H180.691C181.454 117.85 182.21 118 182.915 118.292C183.62 118.584 184.26 119.012 184.8 119.551C185.339 120.091 185.767 120.731 186.059 121.436C186.351 122.141 186.501 122.897 186.501 123.66C186.501 124.286 186.625 124.905 186.865 125.484C187.104 126.062 187.456 126.587 187.899 127.029C188.342 127.471 188.868 127.822 189.447 128.06C190.025 128.299 190.645 128.421 191.271 128.42H252.151C253.415 128.42 254.626 127.918 255.521 127.026C256.415 126.134 256.919 124.923 256.921 123.66C256.92 122.896 257.069 122.14 257.361 121.435C257.652 120.729 258.08 120.088 258.62 119.548C259.16 119.009 259.801 118.581 260.506 118.289C261.212 117.998 261.968 117.848 262.731 117.85H306.521C308.454 117.852 310.307 118.621 311.673 119.988C313.04 121.354 313.809 123.207 313.811 125.14V429.8C313.811 431.734 313.044 433.589 311.677 434.958C310.31 436.327 308.456 437.097 306.521 437.1H136.921Z" fill="white"/>
<path d="M306.52 118.368C307.409 118.367 308.29 118.541 309.112 118.881C309.934 119.221 310.681 119.719 311.31 120.348C311.939 120.977 312.437 121.724 312.777 122.546C313.117 123.368 313.291 124.249 313.29 125.138V429.798C313.29 431.595 312.577 433.318 311.308 434.589C310.038 435.86 308.316 436.576 306.52 436.578H136.92C135.121 436.578 133.395 435.864 132.122 434.593C130.849 433.322 130.133 431.597 130.13 429.798V125.138C130.131 124.248 130.308 123.367 130.65 122.545C130.992 121.722 131.492 120.976 132.123 120.347C132.753 119.718 133.501 119.22 134.324 118.881C135.148 118.541 136.029 118.367 136.92 118.368H180.69C182.093 118.368 183.438 118.926 184.43 119.918C185.423 120.91 185.98 122.255 185.98 123.658C185.98 124.353 186.117 125.041 186.383 125.683C186.648 126.325 187.038 126.908 187.529 127.399C188.02 127.89 188.604 128.28 189.245 128.546C189.887 128.812 190.575 128.948 191.27 128.948H252.15C252.845 128.948 253.532 128.812 254.174 128.546C254.816 128.28 255.399 127.89 255.89 127.399C256.382 126.908 256.771 126.325 257.037 125.683C257.303 125.041 257.44 124.353 257.44 123.658C257.44 122.964 257.577 122.276 257.843 121.634C258.108 120.992 258.498 120.409 258.989 119.918C259.48 119.427 260.064 119.037 260.705 118.771C261.347 118.505 262.035 118.368 262.73 118.368H306.52ZM306.52 117.318H262.73C261.049 117.321 259.438 117.99 258.25 119.178C257.061 120.367 256.393 121.978 256.39 123.658C256.39 124.783 255.943 125.861 255.148 126.656C254.353 127.452 253.274 127.898 252.15 127.898H191.27C190.713 127.9 190.161 127.791 189.646 127.578C189.131 127.366 188.663 127.053 188.269 126.659C187.875 126.265 187.563 125.798 187.35 125.282C187.137 124.767 187.029 124.216 187.03 123.658C187.027 121.978 186.358 120.367 185.17 119.178C183.982 117.99 182.371 117.321 180.69 117.318H136.92C134.845 117.318 132.855 118.142 131.387 119.608C129.919 121.074 129.092 123.063 129.09 125.138V429.798C129.092 431.873 129.919 433.862 131.387 435.329C132.855 436.795 134.845 437.618 136.92 437.618H306.52C308.594 437.618 310.583 436.794 312.049 435.328C313.516 433.861 314.34 431.872 314.34 429.798V125.138C314.337 123.065 313.512 121.078 312.047 119.612C310.581 118.146 308.593 117.321 306.52 117.318Z" fill="#2D7775"/>
<path d="M233.271 122.119H200.001C199.726 122.093 199.471 121.965 199.285 121.761C199.099 121.557 198.996 121.29 198.996 121.014C198.996 120.738 199.099 120.472 199.285 120.268C199.471 120.063 199.726 119.935 200.001 119.909H233.311C233.465 119.895 233.62 119.912 233.767 119.961C233.914 120.01 234.048 120.089 234.163 120.193C234.277 120.297 234.369 120.424 234.431 120.565C234.494 120.707 234.526 120.86 234.526 121.014C234.526 121.169 234.494 121.322 234.431 121.463C234.369 121.605 234.277 121.732 234.163 121.836C234.048 121.94 233.914 122.019 233.767 122.067C233.62 122.116 233.465 122.134 233.311 122.119H233.271Z" fill="white"/>
<path d="M242.15 122.41C242.879 122.41 243.47 121.819 243.47 121.09C243.47 120.361 242.879 119.77 242.15 119.77C241.421 119.77 240.83 120.361 240.83 121.09C240.83 121.819 241.421 122.41 242.15 122.41Z" fill="white"/>
<path d="M263.461 220.219C263.461 223.669 256.841 226.219 255.981 229.399C255.121 232.579 259.551 238.209 257.871 241.089C256.191 243.969 249.171 242.919 246.801 245.299C244.431 247.679 245.521 254.679 242.591 256.369C239.661 258.059 234.201 253.599 230.901 254.479C227.601 255.359 225.171 261.959 221.721 261.959C218.271 261.959 215.721 255.339 212.531 254.479C209.341 253.619 203.721 258.039 200.841 256.369C197.961 254.699 199.011 247.669 196.641 245.299C194.271 242.929 187.251 244.019 185.561 241.089C183.871 238.159 188.331 232.699 187.451 229.399C186.571 226.099 179.971 223.669 179.971 220.219C179.971 216.769 186.601 214.219 187.451 211.029C188.301 207.839 183.891 202.219 185.561 199.339C187.231 196.459 194.261 197.509 196.641 195.129C199.021 192.749 197.911 185.749 200.841 184.059C203.771 182.369 209.231 186.829 212.531 185.949C215.831 185.069 218.261 178.469 221.721 178.469C225.181 178.469 227.721 185.089 230.901 185.949C234.081 186.809 239.711 182.389 242.601 184.059C245.491 185.729 244.421 192.759 246.801 195.139C249.181 197.519 256.181 196.409 257.881 199.339C259.581 202.269 255.101 207.729 256.001 210.999C256.901 214.269 263.461 216.759 263.461 220.219Z" fill="#E9A431"/>
<path d="M221.72 243.459C234.556 243.459 244.96 233.054 244.96 220.219C244.96 207.383 234.556 196.979 221.72 196.979C208.885 196.979 198.48 207.383 198.48 220.219C198.48 233.054 208.885 243.459 221.72 243.459Z" stroke="white" stroke-width="3.58" stroke-miterlimit="10"/>
<path d="M211.08 216.46L215.46 225.85L236.74 214.58" stroke="white" stroke-width="3.58" stroke-linecap="round" stroke-linejoin="round"/>
<path d="M184.868 306.691L180.635 314.878V318.92H177.656V314.878L173.423 306.691H176.802L179.171 311.813L181.523 306.691H184.868ZM190.493 319.059C189.54 319.059 188.681 318.856 187.914 318.45C187.16 318.043 186.561 317.462 186.12 316.708C185.69 315.953 185.476 315.07 185.476 314.06C185.476 313.061 185.696 312.184 186.138 311.429C186.579 310.663 187.183 310.076 187.949 309.67C188.716 309.263 189.575 309.06 190.527 309.06C191.48 309.06 192.339 309.263 193.106 309.67C193.872 310.076 194.476 310.663 194.917 311.429C195.359 312.184 195.579 313.061 195.579 314.06C195.579 315.058 195.353 315.941 194.9 316.708C194.459 317.462 193.849 318.043 193.071 318.45C192.304 318.856 191.445 319.059 190.493 319.059ZM190.493 316.481C191.062 316.481 191.544 316.272 191.938 315.854C192.345 315.436 192.548 314.838 192.548 314.06C192.548 313.282 192.351 312.684 191.956 312.265C191.573 311.847 191.096 311.638 190.527 311.638C189.947 311.638 189.465 311.847 189.082 312.265C188.698 312.672 188.507 313.27 188.507 314.06C188.507 314.838 188.692 315.436 189.064 315.854C189.447 316.272 189.923 316.481 190.493 316.481ZM206.758 309.2V318.92H203.779V317.596C203.477 318.026 203.065 318.374 202.542 318.641C202.031 318.897 201.462 319.024 200.835 319.024C200.092 319.024 199.436 318.862 198.867 318.537C198.298 318.2 197.856 317.718 197.543 317.091C197.229 316.464 197.072 315.726 197.072 314.878V309.2H200.034V314.478C200.034 315.128 200.202 315.633 200.539 315.993C200.876 316.353 201.329 316.533 201.898 316.533C202.478 316.533 202.937 316.353 203.274 315.993C203.611 315.633 203.779 315.128 203.779 314.478V309.2H206.758ZM211.876 310.82C212.225 310.285 212.66 309.867 213.183 309.565C213.706 309.252 214.286 309.095 214.925 309.095V312.248H214.106C213.363 312.248 212.805 312.411 212.434 312.736C212.062 313.049 211.876 313.607 211.876 314.408V318.92H208.898V309.2H211.876V310.82ZM225.824 319.042C224.674 319.042 223.617 318.775 222.653 318.241C221.701 317.706 220.94 316.963 220.371 316.011C219.814 315.047 219.535 313.967 219.535 312.771C219.535 311.574 219.814 310.5 220.371 309.548C220.94 308.596 221.701 307.852 222.653 307.318C223.617 306.784 224.674 306.517 225.824 306.517C226.973 306.517 228.024 306.784 228.977 307.318C229.941 307.852 230.696 308.596 231.241 309.548C231.799 310.5 232.077 311.574 232.077 312.771C232.077 313.967 231.799 315.047 231.241 316.011C230.684 316.963 229.929 317.706 228.977 318.241C228.024 318.775 226.973 319.042 225.824 319.042ZM225.824 316.324C226.799 316.324 227.577 315.999 228.158 315.349C228.75 314.698 229.046 313.839 229.046 312.771C229.046 311.691 228.75 310.831 228.158 310.193C227.577 309.542 226.799 309.217 225.824 309.217C224.837 309.217 224.047 309.536 223.455 310.175C222.874 310.814 222.584 311.679 222.584 312.771C222.584 313.851 222.874 314.716 223.455 315.366C224.047 316.005 224.837 316.324 225.824 316.324ZM236.714 310.82C237.062 310.285 237.497 309.867 238.02 309.565C238.543 309.252 239.123 309.095 239.762 309.095V312.248H238.943C238.2 312.248 237.643 312.411 237.271 312.736C236.899 313.049 236.714 313.607 236.714 314.408V318.92H233.735V309.2H236.714V310.82ZM240.594 314.042C240.594 313.044 240.779 312.167 241.151 311.412C241.534 310.657 242.051 310.076 242.701 309.67C243.352 309.263 244.078 309.06 244.879 309.06C245.518 309.06 246.098 309.194 246.621 309.461C247.155 309.728 247.573 310.088 247.875 310.541V306.029H250.854V318.92H247.875V317.526C247.596 317.991 247.196 318.362 246.673 318.641C246.162 318.92 245.564 319.059 244.879 319.059C244.078 319.059 243.352 318.856 242.701 318.45C242.051 318.032 241.534 317.445 241.151 316.69C240.779 315.924 240.594 315.041 240.594 314.042ZM247.875 314.06C247.875 313.316 247.666 312.73 247.248 312.3C246.842 311.871 246.342 311.656 245.75 311.656C245.158 311.656 244.652 311.871 244.234 312.3C243.828 312.718 243.625 313.299 243.625 314.042C243.625 314.786 243.828 315.378 244.234 315.819C244.652 316.249 245.158 316.464 245.75 316.464C246.342 316.464 246.842 316.249 247.248 315.819C247.666 315.389 247.875 314.803 247.875 314.06ZM262.172 313.903C262.172 314.182 262.154 314.472 262.12 314.774H255.378C255.425 315.378 255.616 315.842 255.953 316.168C256.301 316.481 256.725 316.638 257.225 316.638C257.968 316.638 258.485 316.324 258.775 315.697H261.945C261.783 316.336 261.487 316.911 261.057 317.422C260.639 317.933 260.111 318.333 259.472 318.624C258.833 318.914 258.119 319.059 257.329 319.059C256.377 319.059 255.529 318.856 254.786 318.45C254.043 318.043 253.462 317.462 253.044 316.708C252.626 315.953 252.417 315.07 252.417 314.06C252.417 313.049 252.62 312.167 253.026 311.412C253.444 310.657 254.025 310.076 254.768 309.67C255.512 309.263 256.365 309.06 257.329 309.06C258.27 309.06 259.106 309.258 259.838 309.652C260.569 310.047 261.138 310.611 261.545 311.342C261.963 312.074 262.172 312.927 262.172 313.903ZM259.123 313.119C259.123 312.608 258.949 312.202 258.601 311.9C258.252 311.598 257.817 311.447 257.294 311.447C256.795 311.447 256.371 311.592 256.023 311.882C255.686 312.173 255.477 312.585 255.396 313.119H259.123ZM266.722 310.82C267.071 310.285 267.506 309.867 268.029 309.565C268.551 309.252 269.132 309.095 269.771 309.095V312.248H268.952C268.209 312.248 267.651 312.411 267.28 312.736C266.908 313.049 266.722 313.607 266.722 314.408V318.92H263.743V309.2H266.722V310.82Z" fill="#1A004D"/>
<path d="M168.51 327.591V339.82H165.531V327.591H168.51ZM174.623 339.96C173.775 339.96 173.02 339.815 172.358 339.524C171.697 339.234 171.174 338.839 170.791 338.34C170.407 337.829 170.193 337.26 170.146 336.632H173.09C173.125 336.969 173.282 337.242 173.56 337.451C173.839 337.66 174.182 337.765 174.588 337.765C174.96 337.765 175.244 337.695 175.442 337.556C175.651 337.405 175.755 337.213 175.755 336.981C175.755 336.702 175.61 336.499 175.32 336.371C175.03 336.232 174.559 336.081 173.909 335.918C173.212 335.756 172.631 335.587 172.167 335.413C171.702 335.227 171.302 334.943 170.965 334.559C170.628 334.165 170.46 333.636 170.46 332.974C170.46 332.417 170.611 331.912 170.913 331.459C171.226 330.994 171.679 330.628 172.271 330.361C172.875 330.094 173.59 329.961 174.414 329.961C175.633 329.961 176.592 330.263 177.288 330.866C177.997 331.47 178.403 332.272 178.508 333.27H175.755C175.709 332.934 175.558 332.666 175.302 332.469C175.059 332.272 174.733 332.173 174.327 332.173C173.979 332.173 173.711 332.243 173.526 332.382C173.34 332.51 173.247 332.69 173.247 332.922C173.247 333.201 173.392 333.41 173.682 333.549C173.984 333.688 174.449 333.828 175.076 333.967C175.796 334.153 176.383 334.339 176.835 334.525C177.288 334.699 177.683 334.989 178.02 335.396C178.368 335.79 178.548 336.325 178.56 336.998C178.56 337.567 178.397 338.078 178.072 338.531C177.759 338.973 177.3 339.321 176.696 339.576C176.104 339.832 175.413 339.96 174.623 339.96ZM183.569 333.688C183.569 332.481 183.83 331.406 184.353 330.466C184.875 329.513 185.601 328.776 186.53 328.253C187.471 327.719 188.534 327.452 189.718 327.452C191.17 327.452 192.412 327.835 193.446 328.602C194.48 329.368 195.171 330.414 195.519 331.737H192.244C192 331.226 191.652 330.837 191.199 330.57C190.757 330.303 190.252 330.17 189.683 330.17C188.766 330.17 188.023 330.489 187.453 331.128C186.884 331.766 186.6 332.62 186.6 333.688C186.6 334.757 186.884 335.61 187.453 336.249C188.023 336.888 188.766 337.207 189.683 337.207C190.252 337.207 190.757 337.074 191.199 336.807C191.652 336.54 192 336.15 192.244 335.64H195.519C195.171 336.963 194.48 338.009 193.446 338.775C192.412 339.53 191.17 339.907 189.718 339.907C188.534 339.907 187.471 339.646 186.53 339.124C185.601 338.589 184.875 337.852 184.353 336.911C183.83 335.97 183.569 334.896 183.569 333.688ZM201.768 339.96C200.816 339.96 199.956 339.756 199.19 339.35C198.435 338.944 197.837 338.363 197.395 337.608C196.966 336.853 196.751 335.97 196.751 334.96C196.751 333.961 196.971 333.085 197.413 332.33C197.854 331.563 198.458 330.977 199.224 330.57C199.991 330.164 200.85 329.961 201.803 329.961C202.755 329.961 203.614 330.164 204.381 330.57C205.147 330.977 205.751 331.563 206.192 332.33C206.634 333.085 206.854 333.961 206.854 334.96C206.854 335.959 206.628 336.841 206.175 337.608C205.734 338.363 205.124 338.944 204.346 339.35C203.579 339.756 202.72 339.96 201.768 339.96ZM201.768 337.382C202.337 337.382 202.819 337.172 203.214 336.754C203.62 336.336 203.823 335.738 203.823 334.96C203.823 334.182 203.626 333.584 203.231 333.166C202.848 332.748 202.372 332.539 201.803 332.539C201.222 332.539 200.74 332.748 200.357 333.166C199.974 333.572 199.782 334.17 199.782 334.96C199.782 335.738 199.968 336.336 200.339 336.754C200.723 337.172 201.199 337.382 201.768 337.382ZM214.358 329.995C215.496 329.995 216.402 330.367 217.075 331.11C217.76 331.842 218.103 332.852 218.103 334.141V339.82H215.141V334.542C215.141 333.892 214.973 333.387 214.636 333.027C214.299 332.666 213.847 332.486 213.278 332.486C212.708 332.486 212.256 332.666 211.919 333.027C211.582 333.387 211.414 333.892 211.414 334.542V339.82H208.435V330.1H211.414V331.389C211.716 330.959 212.122 330.623 212.633 330.379C213.144 330.123 213.719 329.995 214.358 329.995ZM225.05 332.574H223.448V339.82H220.469V332.574H219.389V330.1H220.469V329.821C220.469 328.625 220.812 327.719 221.497 327.104C222.182 326.477 223.187 326.163 224.51 326.163C224.731 326.163 224.894 326.169 224.998 326.18V328.706C224.429 328.672 224.028 328.753 223.796 328.95C223.564 329.148 223.448 329.502 223.448 330.013V330.1H225.05V332.574ZM227.948 329.09C227.426 329.09 226.996 328.939 226.659 328.637C226.334 328.323 226.171 327.94 226.171 327.487C226.171 327.022 226.334 326.639 226.659 326.337C226.996 326.024 227.426 325.867 227.948 325.867C228.459 325.867 228.877 326.024 229.203 326.337C229.539 326.639 229.708 327.022 229.708 327.487C229.708 327.94 229.539 328.323 229.203 328.637C228.877 328.939 228.459 329.09 227.948 329.09ZM229.429 330.1V339.82H226.45V330.1H229.429ZM234.567 331.72C234.915 331.186 235.35 330.768 235.873 330.466C236.396 330.152 236.976 329.995 237.615 329.995V333.148H236.796C236.053 333.148 235.496 333.311 235.124 333.636C234.752 333.95 234.567 334.507 234.567 335.309V339.82H231.588V330.1H234.567V331.72ZM251.442 329.995C252.65 329.995 253.608 330.361 254.316 331.093C255.036 331.825 255.396 332.841 255.396 334.141V339.82H252.435V334.542C252.435 333.915 252.266 333.433 251.93 333.096C251.604 332.748 251.152 332.574 250.571 332.574C249.99 332.574 249.531 332.748 249.195 333.096C248.87 333.433 248.707 333.915 248.707 334.542V339.82H245.746V334.542C245.746 333.915 245.577 333.433 245.24 333.096C244.915 332.748 244.462 332.574 243.882 332.574C243.301 332.574 242.842 332.748 242.505 333.096C242.18 333.433 242.018 333.915 242.018 334.542V339.82H239.039V330.1H242.018V331.319C242.32 330.913 242.714 330.594 243.202 330.361C243.69 330.117 244.242 329.995 244.857 329.995C245.589 329.995 246.239 330.152 246.808 330.466C247.389 330.779 247.842 331.226 248.167 331.807C248.504 331.273 248.962 330.837 249.543 330.501C250.124 330.164 250.757 329.995 251.442 329.995ZM266.642 334.803C266.642 335.082 266.625 335.372 266.59 335.674H259.849C259.895 336.278 260.087 336.743 260.424 337.068C260.772 337.382 261.196 337.538 261.695 337.538C262.438 337.538 262.955 337.225 263.246 336.598H266.416C266.253 337.236 265.957 337.811 265.528 338.322C265.11 338.833 264.581 339.234 263.942 339.524C263.304 339.815 262.589 339.96 261.8 339.96C260.847 339.96 260 339.756 259.256 339.35C258.513 338.944 257.932 338.363 257.514 337.608C257.096 336.853 256.887 335.97 256.887 334.96C256.887 333.95 257.091 333.067 257.497 332.312C257.915 331.557 258.496 330.977 259.239 330.57C259.982 330.164 260.836 329.961 261.8 329.961C262.74 329.961 263.577 330.158 264.308 330.553C265.04 330.948 265.609 331.511 266.015 332.243C266.433 332.974 266.642 333.828 266.642 334.803ZM263.594 334.019C263.594 333.508 263.42 333.102 263.071 332.8C262.723 332.498 262.287 332.347 261.765 332.347C261.266 332.347 260.842 332.492 260.493 332.783C260.156 333.073 259.947 333.485 259.866 334.019H263.594ZM267.622 334.943C267.622 333.944 267.807 333.067 268.179 332.312C268.562 331.557 269.079 330.977 269.729 330.57C270.38 330.164 271.106 329.961 271.907 329.961C272.546 329.961 273.126 330.094 273.649 330.361C274.183 330.628 274.601 330.988 274.903 331.441V326.93H277.882V339.82H274.903V338.427C274.625 338.891 274.224 339.263 273.701 339.542C273.19 339.82 272.592 339.96 271.907 339.96C271.106 339.96 270.38 339.756 269.729 339.35C269.079 338.932 268.562 338.345 268.179 337.591C267.807 336.824 267.622 335.941 267.622 334.943ZM274.903 334.96C274.903 334.217 274.694 333.63 274.276 333.201C273.87 332.771 273.37 332.556 272.778 332.556C272.186 332.556 271.681 332.771 271.262 333.201C270.856 333.619 270.653 334.199 270.653 334.943C270.653 335.686 270.856 336.278 271.262 336.72C271.681 337.149 272.186 337.364 272.778 337.364C273.37 337.364 273.87 337.149 274.276 336.72C274.694 336.29 274.903 335.703 274.903 334.96Z" fill="#1A004D"/>
<path d="M195.867 284.98V285.732H193.934V292.068H193.009V285.732H191.066V284.98H195.867ZM199.772 286.393C200.193 286.393 200.572 286.485 200.911 286.668C201.25 286.844 201.515 287.112 201.704 287.472C201.901 287.831 201.999 288.268 201.999 288.783V292.068H201.084V288.916C201.084 288.36 200.945 287.936 200.667 287.644C200.389 287.346 200.009 287.197 199.528 287.197C199.04 287.197 198.65 287.349 198.359 287.655C198.074 287.96 197.931 288.404 197.931 288.987V292.068H197.006V284.543H197.931V287.288C198.114 287.004 198.365 286.783 198.684 286.627C199.009 286.471 199.372 286.393 199.772 286.393ZM203.165 289.261C203.165 288.692 203.281 288.194 203.511 287.766C203.742 287.333 204.057 286.997 204.457 286.76C204.864 286.522 205.315 286.404 205.81 286.404C206.298 286.404 206.721 286.509 207.081 286.719C207.44 286.929 207.708 287.194 207.884 287.512V286.495H208.82V292.068H207.884V291.031C207.701 291.356 207.427 291.628 207.06 291.845C206.701 292.055 206.281 292.16 205.799 292.16C205.304 292.16 204.857 292.038 204.457 291.794C204.057 291.55 203.742 291.207 203.511 290.767C203.281 290.326 203.165 289.824 203.165 289.261ZM207.884 289.272C207.884 288.851 207.799 288.485 207.63 288.173C207.46 287.861 207.23 287.624 206.938 287.461C206.654 287.292 206.338 287.207 205.993 287.207C205.647 287.207 205.332 287.288 205.047 287.451C204.762 287.614 204.535 287.851 204.365 288.163C204.196 288.475 204.111 288.841 204.111 289.261C204.111 289.689 204.196 290.061 204.365 290.38C204.535 290.692 204.762 290.933 205.047 291.102C205.332 291.265 205.647 291.346 205.993 291.346C206.338 291.346 206.654 291.265 206.938 291.102C207.23 290.933 207.46 290.692 207.63 290.38C207.799 290.061 207.884 289.692 207.884 289.272ZM213.099 286.393C213.777 286.393 214.326 286.6 214.747 287.014C215.167 287.421 215.377 288.011 215.377 288.783V292.068H214.462V288.916C214.462 288.36 214.323 287.936 214.045 287.644C213.767 287.346 213.387 287.197 212.906 287.197C212.418 287.197 212.028 287.349 211.736 287.655C211.452 287.96 211.309 288.404 211.309 288.987V292.068H210.384V286.495H211.309V287.288C211.492 287.004 211.74 286.783 212.052 286.627C212.37 286.471 212.72 286.393 213.099 286.393ZM220.001 292.068L217.815 289.607V292.068H216.889V284.543H217.815V288.967L219.96 286.495H221.252L218.628 289.272L221.262 292.068H220.001ZM229.797 284.98L227.489 289.394V292.068H226.563V289.394L224.245 284.98H225.272L227.021 288.57L228.77 284.98H229.797ZM233.204 292.16C232.682 292.16 232.207 292.041 231.78 291.804C231.36 291.567 231.028 291.231 230.784 290.797C230.546 290.356 230.428 289.848 230.428 289.272C230.428 288.702 230.55 288.2 230.794 287.766C231.045 287.326 231.384 286.99 231.811 286.76C232.238 286.522 232.716 286.404 233.245 286.404C233.774 286.404 234.252 286.522 234.679 286.76C235.106 286.99 235.442 287.322 235.686 287.756C235.936 288.19 236.062 288.695 236.062 289.272C236.062 289.848 235.933 290.356 235.675 290.797C235.425 291.231 235.082 291.567 234.648 291.804C234.214 292.041 233.733 292.16 233.204 292.16ZM233.204 291.346C233.536 291.346 233.848 291.268 234.14 291.112C234.431 290.956 234.665 290.723 234.842 290.411C235.025 290.099 235.116 289.719 235.116 289.272C235.116 288.824 235.028 288.444 234.852 288.133C234.675 287.821 234.445 287.59 234.16 287.441C233.875 287.285 233.567 287.207 233.235 287.207C232.896 287.207 232.584 287.285 232.299 287.441C232.021 287.59 231.797 287.821 231.628 288.133C231.458 288.444 231.374 288.824 231.374 289.272C231.374 289.726 231.455 290.109 231.618 290.421C231.787 290.733 232.011 290.967 232.289 291.123C232.567 291.272 232.872 291.346 233.204 291.346ZM242.221 286.495V292.068H241.296V291.245C241.12 291.529 240.872 291.753 240.553 291.916C240.242 292.072 239.896 292.15 239.516 292.15C239.082 292.15 238.692 292.062 238.347 291.885C238.001 291.702 237.726 291.431 237.523 291.072C237.326 290.712 237.228 290.275 237.228 289.76V286.495H238.143V289.638C238.143 290.187 238.282 290.611 238.56 290.909C238.838 291.201 239.218 291.346 239.699 291.346C240.194 291.346 240.584 291.194 240.869 290.889C241.153 290.584 241.296 290.139 241.296 289.556V286.495H242.221ZM246.79 292.129C246.614 292.129 246.465 292.068 246.343 291.946C246.221 291.824 246.16 291.675 246.16 291.499C246.16 291.323 246.221 291.173 246.343 291.051C246.465 290.929 246.614 290.868 246.79 290.868C246.96 290.868 247.102 290.929 247.217 291.051C247.339 291.173 247.4 291.323 247.4 291.499C247.4 291.675 247.339 291.824 247.217 291.946C247.102 292.068 246.96 292.129 246.79 292.129ZM251.637 292.129C251.461 292.129 251.311 292.068 251.189 291.946C251.067 291.824 251.006 291.675 251.006 291.499C251.006 291.323 251.067 291.173 251.189 291.051C251.311 290.929 251.461 290.868 251.637 290.868C251.806 290.868 251.949 290.929 252.064 291.051C252.186 291.173 252.247 291.323 252.247 291.499C252.247 291.675 252.186 291.824 252.064 291.946C251.949 292.068 251.806 292.129 251.637 292.129Z" fill="#1A004D"/>
<path d="M166.55 231.01H75.5595C72.4999 231.01 70.0195 233.49 70.0195 236.55V294.74C70.0195 297.799 72.4999 300.28 75.5595 300.28H166.55C169.609 300.28 172.09 297.799 172.09 294.74V236.55C172.09 233.49 169.609 231.01 166.55 231.01Z" fill="white"/>
<path d="M166.55 231.539C167.876 231.539 169.148 232.066 170.086 233.004C171.023 233.941 171.55 235.213 171.55 236.539V294.739C171.55 296.065 171.023 297.337 170.086 298.275C169.148 299.212 167.876 299.739 166.55 299.739H75.5502C74.2242 299.739 72.9524 299.212 72.0147 298.275C71.077 297.337 70.5502 296.065 70.5502 294.739V236.539C70.5502 235.213 71.077 233.941 72.0147 233.004C72.9524 232.066 74.2242 231.539 75.5502 231.539H166.55ZM166.55 230.539H75.5502C73.9438 230.542 72.404 231.181 71.2681 232.317C70.1322 233.453 69.4929 234.993 69.4902 236.599V294.799C69.4929 296.405 70.1322 297.945 71.2681 299.081C72.404 300.217 73.9438 300.856 75.5502 300.859H166.55C168.157 300.856 169.696 300.217 170.832 299.081C171.968 297.945 172.608 296.405 172.61 294.799V236.599C172.608 234.993 171.968 233.453 170.832 232.317C169.696 231.181 168.157 230.542 166.55 230.539Z" fill="#2D7775"/>
<path d="M154.528 244.811L86.5879 244.977C85.3452 244.98 84.3404 245.99 84.3434 247.232L84.4331 283.952C84.4361 285.195 85.446 286.2 86.6886 286.197L154.628 286.031C155.871 286.028 156.876 285.018 156.873 283.775L156.783 247.055C156.78 245.813 155.77 244.808 154.528 244.811Z" fill="#2D7775"/>
<path d="M156.803 250.495L84.3633 250.672L84.3824 258.492L156.822 258.315L156.803 250.495Z" fill="#1A004D"/>
<path d="M146.3 280.869C150 280.869 153 277.869 153 274.169C153 270.468 150 267.469 146.3 267.469C142.599 267.469 139.6 270.468 139.6 274.169C139.6 277.869 142.599 280.869 146.3 280.869Z" fill="#85ECE9" fill-opacity="0.5"/>
<g style="mix-blend-mode:multiply" opacity="0.4">
<path d="M101.902 262.298L88.1719 262.332L88.1786 265.082L101.909 265.048L101.902 262.298Z" fill="#2D7775"/>
<path d="M118.941 262.257L105.211 262.291L105.218 265.041L118.948 265.007L118.941 262.257Z" fill="#2D7775"/>
<path d="M135.982 262.214L122.252 262.248L122.259 264.998L135.989 264.964L135.982 262.214Z" fill="#2D7775"/>
<path d="M153.021 262.173L139.291 262.207L139.298 264.957L153.028 264.923L153.021 262.173Z" fill="#2D7775"/>
</g>
<path d="M101.925 272.33L88.1953 272.363L88.2055 276.543L101.935 276.51L101.925 272.33Z" fill="#1A004D"/>
<path d="M119.115 272.287L105.385 272.32L105.395 276.5L119.125 276.467L119.115 272.287Z" fill="#1A004D"/>
<path d="M136.306 272.246L122.576 272.279L122.586 276.459L136.316 276.426L136.306 272.246Z" fill="#1A004D"/>
<path d="M155.41 255.129C159.458 255.129 162.74 251.847 162.74 247.799C162.74 243.751 159.458 240.469 155.41 240.469C151.362 240.469 148.08 243.751 148.08 247.799C148.08 251.847 151.362 255.129 155.41 255.129Z" fill="#E9A431"/>
<path d="M152.051 246.61L153.431 249.57L160.141 246.02" stroke="white" stroke-width="1.13" stroke-miterlimit="10"/>
<path d="M299.67 384.998C299.67 384.998 298.67 341.068 313.48 341.068C328.29 341.068 322.67 384.998 322.67 384.998" stroke="#1A004D" stroke-width="0.89" stroke-linecap="round" stroke-linejoin="round"/>
<path d="M293.82 445.719H340.37C341.619 445.719 342.853 445.448 343.986 444.924C345.119 444.4 346.125 443.636 346.934 442.685C347.742 441.734 348.334 440.618 348.669 439.415C349.003 438.212 349.072 436.951 348.87 435.719L341.42 379.719H297.42L293.82 445.719Z" fill="#E9A431"/>
<path d="M280.001 444.449C280.867 445.27 282.017 445.725 283.211 445.719H293.821L297.461 379.719H283.311L278.531 440.629C278.47 441.335 278.571 442.046 278.825 442.708C279.08 443.37 279.482 443.965 280.001 444.449Z" fill="#E9A431"/>
<path d="M290.47 379.549L286.49 437.969L293.81 445.729L297.46 379.679L290.47 379.549Z" fill="#D88F25"/>
<path d="M280 444.45C280.866 445.271 282.016 445.726 283.21 445.72H293.82L286.48 438L280 444.45Z" fill="#BA7111"/>
<path d="M330.72 386.758C331.714 386.758 332.52 385.952 332.52 384.958C332.52 383.964 331.714 383.158 330.72 383.158C329.726 383.158 328.92 383.964 328.92 384.958C328.92 385.952 329.726 386.758 330.72 386.758Z" fill="#1A004D"/>
<path d="M307.71 386.758C308.704 386.758 309.51 385.952 309.51 384.958C309.51 383.964 308.704 383.158 307.71 383.158C306.716 383.158 305.91 383.964 305.91 384.958C305.91 385.952 306.716 386.758 307.71 386.758Z" fill="#1A004D"/>
<path d="M307.71 384.998C307.71 384.998 301.41 340.908 316.24 340.908C331.07 340.908 330.72 384.998 330.72 384.998" stroke="#1A004D" stroke-width="0.89" stroke-linecap="round" stroke-linejoin="round"/>
<path d="M385.98 191.309L377.01 197.959L370.68 192.239L370.73 183.679L383.52 173.779L383.73 175.299L384.37 179.859L385.98 191.309Z" fill="#F4AF9F"/>
<g style="mix-blend-mode:multiply" opacity="0.5">
<path d="M383.901 176.869C380.381 183.779 372.291 187.139 370.711 187.609V185.809L382.631 175.359C382.993 175.318 383.357 175.298 383.721 175.299L383.901 176.869Z" fill="#F4AF9F"/>
</g>
<path d="M384.601 175.579C382.873 178.978 380.11 181.741 376.711 183.469C374.131 184.709 371.201 186.389 368.231 185.789C365.601 185.259 364.231 182.639 363.121 180.469C362.063 178.335 361.528 175.98 361.561 173.599C361.71 171.072 361.582 168.537 361.181 166.039C360.761 164.039 360.181 161.559 361.341 159.709C362.891 157.309 374.931 154.389 374.931 154.389L381.981 158.329L387.311 161.899L384.601 175.579Z" fill="#F4AF9F"/>
<path d="M363.821 169.799C363.821 170.539 364.211 171.139 364.691 171.139C365.171 171.139 365.541 170.529 365.541 169.789C365.534 169.456 365.445 169.129 365.28 168.839C365.218 168.73 365.13 168.639 365.023 168.572C364.917 168.506 364.796 168.467 364.671 168.459C364.191 168.459 363.811 169.059 363.821 169.799Z" fill="#1A004D"/>
<path d="M372.18 170.299C372.18 171.039 372.61 171.639 373.18 171.629C373.75 171.619 374.13 171.029 374.13 170.289C374.136 169.95 374.035 169.617 373.84 169.339C373.766 169.225 373.665 169.13 373.547 169.062C373.429 168.994 373.296 168.956 373.16 168.949C372.59 168.999 372.17 169.559 372.18 170.299Z" fill="#1A004D"/>
<path d="M371.17 166.289L374.3 166.639" stroke="#1A004D" stroke-width="0.48" stroke-linecap="round" stroke-linejoin="round"/>
<path d="M363.141 166.129L365.641 166.169" stroke="#1A004D" stroke-width="0.48" stroke-linecap="round" stroke-linejoin="round"/>
<path d="M368.561 170.539C368.561 170.539 367.561 172.279 367.231 172.749C366.901 173.219 365.801 174.749 368.231 174.819" stroke="#1A004D" stroke-width="0.48" stroke-linecap="round" stroke-linejoin="round"/>
<path d="M371.581 177.338C371.363 177.546 371.129 177.737 370.881 177.908C370.048 178.545 369.047 178.923 368.001 178.998C367.141 178.998 366.311 178.178 365.891 177.678C365.721 177.468 365.621 177.318 365.621 177.318C365.621 177.318 366.171 177.318 366.961 177.388C367.751 177.458 368.961 177.468 369.961 177.448C370.503 177.444 371.044 177.407 371.581 177.338Z" fill="#1A004D"/>
<path d="M371.581 177.338C371.363 177.546 371.129 177.737 370.881 177.908C369.221 178.239 367.505 178.161 365.881 177.678C365.711 177.468 365.611 177.318 365.611 177.318C365.611 177.318 366.161 177.318 366.951 177.388C367.741 177.458 368.951 177.468 369.951 177.448C370.496 177.444 371.041 177.408 371.581 177.338Z" fill="white"/>
<path d="M368.56 161.49C368.709 162.092 368.997 162.651 369.399 163.123C369.802 163.595 370.309 163.967 370.88 164.21C370.88 164.21 367.15 164.65 364.88 162.98C364.88 162.98 365.93 164.6 366.81 164.87C366.81 164.87 362.16 165.09 360.67 163.38L361.2 166.31C361.2 166.31 358.48 163.6 358.53 160.31C358.53 157.98 359.61 155.84 360.32 153.66C360.79 152.24 361.48 150.66 362.87 149.88C366.6 147.88 371.12 148.23 375.08 149.25C378.315 149.908 381.365 151.274 384.01 153.25C390.73 158.85 388.13 171.25 383.62 177.41C383.62 177.41 383.07 171.74 382.98 169.98C382.89 168.22 381.31 167.79 381.36 168.63C381.41 169.47 381.27 173.55 380.36 173.51C379.45 173.47 379.14 166.31 377.04 164.82C374.94 163.33 370.27 162.9 368.56 161.49Z" fill="#1A004D"/>
<path d="M359.69 193.779C366.8 200.179 348.69 252.919 342.95 249.409C332.09 248.459 346.22 185.809 359.69 193.779Z" fill="#F4AF9F"/>
<path d="M361.271 402.859L356.421 427.209C356.421 427.209 344.241 428.019 344.281 427.499C344.321 426.979 345.591 401.369 345.591 401.369L361.271 402.859Z" fill="#F4AF9F"/>
<path d="M409.81 412.1L410.37 426.66C410.37 426.66 398.47 427.66 398.51 427.15C398.55 426.64 396.93 412 396.93 412L409.81 412.1Z" fill="#F4AF9F"/>
<path d="M342 414.619L362.9 415.739L378.22 296.259L394.89 417.539L412.81 416.419L405.94 256.269L405.71 250.809L405.65 249.449L353.57 249.979L353.51 250.809L353.13 256.269L342 414.619Z" fill="#1A004D"/>
<path d="M378.17 296.259L375 277.529" stroke="#2D7775" stroke-width="0.5" stroke-linecap="round" stroke-linejoin="round"/>
<path d="M353.08 256.269H405.89L405.66 250.809H353.46L353.08 256.269Z" fill="#2D7775"/>
<path d="M370.65 188.178C365.825 188.38 361.167 190.001 357.26 192.838C351.1 197.508 353.15 251.088 353.15 251.088L406.15 251.648C406.15 251.648 404.32 195.568 401.15 191.718C398.35 188.358 385.56 187.238 385.56 187.238C385.56 187.238 369.72 201.618 370.65 188.178Z" fill="white"/>
<path d="M386.76 187.148L387.84 242.778L388.62 283.198L410.23 284.408C410.23 284.408 408.39 257.168 407.6 239.668C407.54 238.498 407.5 237.388 407.47 236.338C407.35 231.998 407.32 227.568 407.31 223.288C407.31 209.848 407.31 198.018 405.42 194.988C400.78 187.448 386.76 187.148 386.76 187.148Z" fill="#2D7775"/>
<path d="M396.16 213.359L407.6 239.669C407.54 238.499 407.5 237.389 407.47 236.339C407.35 231.999 407.32 227.569 407.31 223.289C403.418 220.181 399.696 216.867 396.16 213.359Z" fill="#1A004D"/>
<path d="M342.37 248.46C343.155 247.842 343.768 247.033 344.15 246.11C344.532 245.187 344.669 244.181 344.55 243.19C342.98 227.5 310.4 180.38 307.93 184.24C305.24 186.06 330.16 257.47 342.37 248.46Z" fill="#F4AF9F"/>
<path d="M313.7 186.58L328.42 208.15L316.47 214.59L306.67 191.72L313.7 186.58Z" fill="#F4AF9F"/>
<path d="M314.701 214.31C314.701 214.31 316.911 219.25 325.251 233.82C330.491 242.98 336.161 250.52 340.741 250.82C347.431 251.24 353.171 241.37 356.901 232.69C358.671 228.553 360.193 224.316 361.461 220L367.941 188.35C367.941 188.35 352.941 189.68 349.261 196.75C345.321 204.4 339.101 221.68 339.101 221.68L328.881 206.68L314.701 214.31Z" fill="#2D7775"/>
<path d="M325.25 233.819C330.49 242.979 336.16 250.519 340.74 250.819C347.43 251.239 353.17 241.369 356.9 232.689C353.78 224.819 349.9 214.879 349.9 214.879C349.9 214.879 351.59 245.499 341.22 245.029C335.71 244.769 329.7 239.099 325.25 233.819Z" fill="#1A004D"/>
<path d="M349.42 209.459L349.61 283.289C349.61 283.289 367.2 282.729 367.95 282.729C368.28 282.729 367.67 261.049 367.79 241.199C367.93 216.349 367.94 188.359 367.94 188.359C360.47 189.069 349.42 209.459 349.42 209.459Z" fill="#2D7775"/>
<path d="M399.42 190.82C408.97 190.27 430.33 233.82 423.81 235.41C415.5 242.46 384.28 194.78 399.42 190.82Z" fill="#F4AF9F"/>
<path d="M424.121 234C423.144 234 422.185 234.251 421.334 234.729C420.482 235.207 419.769 235.896 419.261 236.73C411.001 249.73 407.891 300.93 412.121 299.46C415.291 299.65 435.291 234.29 424.121 234Z" fill="#F4AF9F"/>
<path d="M412.14 258.279L409.16 289.549L416.92 291.729L426.33 258.789L412.14 258.279Z" fill="#F4AF9F"/>
<path d="M313.7 186.579C312.697 185.002 311.584 183.499 310.37 182.079C308.92 180.449 306.06 178.439 304 179.419C302.49 180.129 306.76 182.169 305.92 182.179C305.08 182.189 301.67 182.629 299.65 180.879C297.63 179.129 294.79 176.669 293.59 177.169C292.39 177.669 297.05 181.389 296.44 181.749C295.83 182.109 292.29 176.329 290.58 178.499C288.87 180.669 293.26 187.999 298.79 189.969C304.32 191.939 308.38 191.469 308.88 192.369C309.38 193.269 313.7 186.579 313.7 186.579Z" fill="#F4AF9F"/>
<path d="M395.531 188.359C395.531 188.359 406.731 189.899 411.911 199.009C419.651 212.609 430.531 235.309 429.971 243.009C429.411 250.709 425.971 264.199 425.971 264.199L410.971 262.329L412.971 239.929L391.311 207.629L394.861 190.629L395.531 188.359Z" fill="#2D7775"/>
<path d="M398.51 427.149C398.46 430.679 394.39 443.579 394.43 446.639C417.14 446.329 415.33 450.129 410.75 426.639L398.51 427.149Z" fill="#1A004D"/>
<path d="M344.001 427.589C344.001 427.589 341.681 431.959 334.091 437.589C326.501 443.219 324.551 441.979 324.351 444.109C324.151 446.239 357.251 444.749 357.251 444.749L356.401 427.199C356.401 427.199 344.001 427.129 344.001 427.589Z" fill="#1A004D"/>
<path d="M386.76 187.148L387.84 242.778C390.42 234.038 394.59 219.538 394.59 219.538L389.59 212.438L394.59 210.948L386.76 187.148Z" fill="#1A004D"/>
<path d="M364.351 213.099L360.711 215.439L367.791 241.199C367.931 216.349 367.941 188.359 367.941 188.359L360.621 209.999L364.351 213.099Z" fill="#1A004D"/>
<path d="M413.57 306.659L414.57 305.249C415.71 303.119 416.98 301.679 417.19 299.249V298.389L416.91 291.719L410.35 289.609L410.05 288.559L408.05 290.109L404.75 292.999C403.914 293.731 403.265 294.653 402.86 295.689L402.25 300.599C402.25 300.599 403.17 301.809 404.25 299.199C404.74 298.402 405.429 297.747 406.25 297.299L405.94 298.499L405.57 299.989L404.2 306.099C403.88 307.799 411.77 309.429 413.57 306.659Z" fill="#F4AF9F"/>
<path d="M410.651 258.18L427.541 261.45L425.021 266.96L410.281 263.88L410.651 258.18Z" fill="#2D7775"/>
<path d="M330.801 208.329L314.741 217.149L313.061 210.929L326.691 203.439L330.801 208.329Z" fill="#2D7775"/>
<path d="M315.56 213.7C315.869 213.7 316.12 213.449 316.12 213.14C316.12 212.831 315.869 212.58 315.56 212.58C315.251 212.58 315 212.831 315 213.14C315 213.449 315.251 213.7 315.56 213.7Z" fill="#1A004D"/>
<path d="M317.621 212.62C317.93 212.62 318.181 212.369 318.181 212.06C318.181 211.751 317.93 211.5 317.621 211.5C317.311 211.5 317.061 211.751 317.061 212.06C317.061 212.369 317.311 212.62 317.621 212.62Z" fill="#1A004D"/>
<path d="M424.091 264.319C424.401 264.319 424.651 264.068 424.651 263.759C424.651 263.45 424.401 263.199 424.091 263.199C423.782 263.199 423.531 263.45 423.531 263.759C423.531 264.068 423.782 264.319 424.091 264.319Z" fill="#1A004D"/>
<path d="M421.941 263.849C422.25 263.849 422.501 263.598 422.501 263.289C422.501 262.979 422.25 262.729 421.941 262.729C421.632 262.729 421.381 262.979 421.381 263.289C421.381 263.598 421.632 263.849 421.941 263.849Z" fill="#1A004D"/>
<path d="M398.1 217.809L407.38 231.529" stroke="#1A004D" stroke-width="0.25" stroke-linecap="round" stroke-linejoin="round"/>
<path d="M349.51 245.579L349.33 221.869" stroke="#1A004D" stroke-width="0.25" stroke-linecap="round" stroke-linejoin="round"/>
<path d="M432.211 444.578H81.1914V449.008H432.211V444.578Z" fill="#1A004D"/>
<path d="M251.131 357.119H195.301C192.44 357.119 190.121 359.438 190.121 362.299V373.799C190.121 376.66 192.44 378.979 195.301 378.979H251.131C253.992 378.979 256.311 376.66 256.311 373.799V362.299C256.311 359.438 253.992 357.119 251.131 357.119Z" fill="#E9A431"/>
<path d="M209.682 364.511C210.611 364.511 211.423 364.695 212.118 365.064C212.813 365.432 213.349 365.951 213.726 366.621C214.111 367.283 214.304 368.049 214.304 368.92C214.304 369.782 214.111 370.548 213.726 371.218C213.349 371.888 212.809 372.407 212.106 372.775C211.411 373.144 210.603 373.328 209.682 373.328H206.378V364.511H209.682ZM209.543 371.469C210.356 371.469 210.988 371.247 211.44 370.804C211.892 370.36 212.118 369.732 212.118 368.92C212.118 368.107 211.892 367.475 211.44 367.023C210.988 366.571 210.356 366.345 209.543 366.345H208.526V371.469H209.543ZM219.674 373.416C218.845 373.416 218.083 373.223 217.388 372.838C216.701 372.453 216.153 371.917 215.743 371.231C215.341 370.536 215.14 369.757 215.14 368.894C215.14 368.032 215.341 367.257 215.743 366.571C216.153 365.884 216.701 365.348 217.388 364.963C218.083 364.578 218.845 364.385 219.674 364.385C220.503 364.385 221.261 364.578 221.947 364.963C222.642 365.348 223.186 365.884 223.58 366.571C223.982 367.257 224.183 368.032 224.183 368.894C224.183 369.757 223.982 370.536 223.58 371.231C223.178 371.917 222.634 372.453 221.947 372.838C221.261 373.223 220.503 373.416 219.674 373.416ZM219.674 371.457C220.377 371.457 220.938 371.222 221.357 370.753C221.784 370.284 221.997 369.665 221.997 368.894C221.997 368.116 221.784 367.496 221.357 367.036C220.938 366.567 220.377 366.332 219.674 366.332C218.962 366.332 218.393 366.562 217.966 367.023C217.547 367.484 217.338 368.107 217.338 368.894C217.338 369.673 217.547 370.297 217.966 370.766C218.393 371.226 218.962 371.457 219.674 371.457ZM233.265 373.328H231.118L227.526 367.89V373.328H225.378V364.511H227.526L231.118 369.975V364.511H233.265V373.328ZM236.97 366.232V368.015H239.846V369.673H236.97V371.607H240.223V373.328H234.822V364.511H240.223V366.232H236.97Z" fill="white"/>
<path d="M405.111 149.98C420.288 149.98 432.591 137.676 432.591 122.5C432.591 107.323 420.288 95.0195 405.111 95.0195C389.934 95.0195 377.631 107.323 377.631 122.5C377.631 137.676 389.934 149.98 405.111 149.98Z" fill="#E9A431"/>
<path d="M398.18 146.508L407.05 158.628L415.18 144.898L398.18 146.508Z" fill="#E9A431"/>
<path d="M392.531 118.06L397.711 129.16L422.861 115.84" stroke="white" stroke-width="4.23" stroke-linecap="round" stroke-linejoin="round"/>
</g>
<defs>
<clipPath id="clip0_1534_1250">
<rect width="500" height="500" fill="white"/>
</clipPath>
</defs>
</svg>
