<svg width="48" height="48" viewBox="0 0 48 48" fill="none" xmlns="http://www.w3.org/2000/svg">
<rect width="48" height="48" rx="24" fill="#2D7775" fill-opacity="0.08"/>
<g clip-path="url(#clip0_1084_5910)">
<path d="M24 12C17.4 12 12 17.4 12 24C12 30.5999 17.4 35.9999 24 35.9999C30.5999 35.9999 35.9999 30.5999 35.9999 24C35.9999 17.4 30.6 12 24 12ZM24 33.6C18.72 33.6 14.4 29.28 14.4 24C14.4 18.72 18.72 14.4 24 14.4C29.28 14.4 33.6 18.72 33.6 24C33.6 29.2799 29.28 33.6 24 33.6Z" fill="#2D7775"/>
<path d="M23.9998 16.7999C20.0398 16.7999 16.7998 20.0399 16.7998 23.9999C16.7998 27.9599 20.0398 31.1999 23.9998 31.1999C27.9598 31.1999 31.1998 27.9599 31.1998 23.9999C31.1998 20.0399 27.9598 16.7999 23.9998 16.7999ZM23.9998 28.8C21.3598 28.8 19.1998 26.64 19.1998 24C19.1998 21.36 21.3598 19.1999 23.9998 19.1999C26.6398 19.1999 28.7998 21.3599 28.7998 23.9999C28.7998 26.6399 26.6398 28.8 23.9998 28.8Z" fill="#2D7775"/>
<path d="M23.9996 26.4C25.3251 26.4 26.3996 25.3255 26.3996 24C26.3996 22.6745 25.3251 21.6 23.9996 21.6C22.6741 21.6 21.5996 22.6745 21.5996 24C21.5996 25.3255 22.6741 26.4 23.9996 26.4Z" fill="#2D7775"/>
</g>
<defs>
<clipPath id="clip0_1084_5910">
<rect width="24" height="24" fill="white" transform="translate(12 12)"/>
</clipPath>
</defs>
</svg>
