<svg width="48" height="48" viewBox="0 0 48 48" fill="none" xmlns="http://www.w3.org/2000/svg">
<rect width="48" height="48" rx="24" fill="#2D7775" fill-opacity="0.08"/>
<g clip-path="url(#clip0_1084_5965)">
<path d="M23.9998 19.2858C26.5981 19.2858 28.7141 21.3995 28.7141 24.0001C28.7141 26.5983 26.5981 28.7121 23.9998 28.7121C21.4015 28.7121 19.2855 26.5983 19.2855 24.0001C19.2855 21.3995 21.4015 19.2858 23.9998 19.2858ZM17.1404 16.2858C16.3547 16.2858 15.8478 16.7412 15.6358 17.1652C15.4238 17.5892 15.4307 18.0001 15.4307 18.0001V30.0001C15.4307 30.0001 15.4238 30.4132 15.6358 30.8372C15.8478 31.2589 16.3547 31.7143 17.1404 31.7143H30.8547C31.6404 31.7143 32.1518 31.2589 32.3638 30.8372C32.5758 30.4132 32.5713 30.0001 32.5713 30.0001V18.0001C32.5713 18.0001 32.5781 17.5892 32.3638 17.1652C32.1518 16.7412 31.6404 16.2858 30.8547 16.2858H17.1404Z" fill="#2D7775"/>
<path d="M22.7257 21.4287C22.6492 21.426 22.5735 21.4446 22.5069 21.4824V21.4801C22.4398 21.5176 22.3839 21.5723 22.3451 21.6386C22.3062 21.7049 22.2857 21.7804 22.2857 21.8572V26.1452C22.2866 26.2212 22.3076 26.2955 22.3466 26.3607C22.3857 26.4258 22.4413 26.4794 22.5079 26.516C22.5745 26.5526 22.6496 26.5708 22.7255 26.5688C22.8014 26.5668 22.8754 26.5447 22.94 26.5047L26.3703 24.3641C26.4323 24.3254 26.4834 24.2716 26.5189 24.2077C26.5543 24.1439 26.5729 24.072 26.5729 23.9989C26.5729 23.9259 26.5543 23.854 26.5189 23.7901C26.4834 23.7263 26.4323 23.6725 26.3703 23.6338L22.94 21.4932C22.8754 21.4534 22.8016 21.4311 22.7257 21.4287ZM14.1429 17.1429C14.0294 17.1437 13.9208 17.1891 13.8406 17.2693C13.7604 17.3495 13.715 17.4581 13.7143 17.5715V30.4287C13.7143 30.5423 13.7594 30.6513 13.8398 30.7317C13.9202 30.8121 14.0292 30.8572 14.1429 30.8572C14.2565 30.8572 14.3655 30.8121 14.4459 30.7317C14.5263 30.6513 14.5714 30.5423 14.5714 30.4287V17.5715C14.5714 17.4579 14.5263 17.3488 14.4459 17.2685C14.3655 17.1881 14.2565 17.1429 14.1429 17.1429ZM12.4286 18.0001C12.3151 18.0008 12.2066 18.0462 12.1264 18.1264C12.0461 18.2067 12.0007 18.3152 12 18.4287V29.5715C12 29.8081 12.1897 30.0001 12.4286 30.0001C12.485 30.0005 12.5409 29.9896 12.593 29.9682C12.6452 29.9468 12.6926 29.9153 12.7325 29.8754C12.7723 29.8355 12.8039 29.7881 12.8253 29.736C12.8467 29.6838 12.8575 29.6279 12.8571 29.5715V18.4287C12.8571 18.315 12.812 18.206 12.7316 18.1256C12.6512 18.0452 12.5422 18.0001 12.4286 18.0001ZM33.8571 17.1429C33.7435 17.1429 33.6345 17.1881 33.5541 17.2685C33.4737 17.3488 33.4286 17.4579 33.4286 17.5715V30.4287C33.4282 30.485 33.439 30.5409 33.4604 30.5931C33.4818 30.6453 33.5134 30.6927 33.5533 30.7326C33.5931 30.7724 33.6405 30.804 33.6927 30.8254C33.7449 30.8468 33.8008 30.8576 33.8571 30.8572C34.096 30.8572 34.2857 30.6652 34.2857 30.4287V17.5715C34.285 17.4581 34.2396 17.3495 34.1594 17.2693C34.0792 17.1891 33.9706 17.1437 33.8571 17.1429ZM35.5737 18.0001C35.4598 18.0001 35.3506 18.0452 35.2699 18.1255C35.1891 18.2058 35.1435 18.3148 35.1429 18.4287V29.5715C35.1426 29.6281 35.1535 29.6841 35.1751 29.7364C35.1966 29.7887 35.2284 29.8362 35.2685 29.8761C35.3086 29.9159 35.3562 29.9475 35.4086 29.9687C35.461 29.99 35.5172 30.0007 35.5737 30.0001C35.6299 30 35.6855 29.9889 35.7373 29.9673C35.7891 29.9457 35.8362 29.9141 35.8758 29.8743C35.9154 29.8344 35.9467 29.7872 35.9681 29.7353C35.9894 29.6833 36.0002 29.6277 36 29.5715V18.4287C35.9997 18.3155 35.9548 18.207 35.875 18.1267C35.7951 18.0465 35.6869 18.001 35.5737 18.0001Z" fill="#2D7775"/>
</g>
<defs>
<clipPath id="clip0_1084_5965">
<rect width="24" height="24" fill="white" transform="translate(12 12)"/>
</clipPath>
</defs>
</svg>
