<svg width="48" height="48" viewBox="0 0 48 48" fill="none" xmlns="http://www.w3.org/2000/svg">
<rect width="48" height="48" rx="24" fill="#2D7775" fill-opacity="0.08"/>
<path d="M13.7373 19.5631V26.2894C13.7373 28.2 15.2847 29.7473 17.1952 29.7473H27.2373C27.9478 29.7473 28.532 29.1631 28.532 28.4526V21.7105C28.532 19.8 26.9847 18.2526 25.0741 18.2526H15.032C14.3215 18.2526 13.7373 18.821 13.7373 19.5158V19.5631ZM29.6847 27.0473L32.4636 29.4789C32.9057 29.8737 33.6005 29.8263 33.9952 29.3842C34.1689 29.1789 34.2636 28.9263 34.2636 28.6737V19.3263C34.2636 18.7263 33.7741 18.2526 33.1899 18.2368C32.9215 18.2368 32.6689 18.3316 32.4794 18.5052L29.6847 20.9526C29.4478 21.1579 29.3215 21.4579 29.3215 21.7737V26.2421C29.3215 26.5421 29.4636 26.8421 29.6847 27.0473Z" fill="#2D7775"/>
</svg>
