<svg width="48" height="48" viewBox="0 0 48 48" fill="none" xmlns="http://www.w3.org/2000/svg">
<rect width="48" height="48" rx="24" fill="#2D7775" fill-opacity="0.08"/>
<path d="M33.1431 22.7568C32.8201 22.8459 32.5781 23.1109 32.5781 23.446V29.9074C32.5781 30.4075 33.0858 30.7481 33.5483 30.5582C35.0846 29.9274 36 29.1394 36 28.2844V20.8383C36 20.8383 34.9777 22.2506 33.1431 22.7568ZM14.8569 22.7568C13.0223 22.2506 12 20.8383 12 20.8383V28.2844C12 29.1394 12.9154 29.9274 14.4517 30.5581C14.9142 30.748 15.4219 30.4074 15.4219 29.9074V23.446C15.4219 23.111 15.1799 22.8459 14.8569 22.7568ZM25.3054 23.5102H22.6946C21.8813 23.5102 21.222 24.1695 21.222 24.9828V26.8568C21.222 27.1157 21.4319 27.3256 21.6908 27.3256H22.3404L22.9657 32.5462C22.9816 32.6579 23.0373 32.7601 23.1226 32.8341C23.2078 32.908 23.3168 32.9487 23.4297 32.9487H24.5703C24.6831 32.9487 24.7922 32.908 24.8774 32.8341C24.9626 32.7601 25.0184 32.6579 25.0343 32.5462L25.6596 27.3256H26.3092C26.568 27.3256 26.7779 27.1157 26.7779 26.8568V24.9828C26.778 24.1695 26.1187 23.5102 25.3054 23.5102Z" fill="#2D7775"/>
<path d="M24.9633 21.4654C25.1827 20.9362 24.9316 20.3292 24.4024 20.1098C23.8731 19.8903 23.2662 20.1415 23.0467 20.6707C22.8273 21.2 23.0785 21.8069 23.6077 22.0264C24.1369 22.2458 24.7439 21.9946 24.9633 21.4654Z" fill="#2D7775"/>
<path d="M36 18.9633C36 16.8027 30.6274 15.0511 24 15.0511C17.3726 15.0511 12 16.8027 12 18.9633C12.2227 19.369 13.1218 20.4693 15.8505 21.4931C16.423 21.7079 16.8281 22.2209 16.8281 22.8324V25.4166C17.7292 25.158 18.7391 24.9528 19.8218 24.8056C19.8961 23.5894 20.7285 22.5749 21.8516 22.2302C21.6573 21.8731 21.5558 21.473 21.5563 21.0666C21.5563 19.7191 22.6525 18.6229 24 18.6229C25.3474 18.6229 26.4436 19.7191 26.4436 21.0666C26.4441 21.473 26.3426 21.8731 26.1483 22.2302C27.2715 22.5749 28.1038 23.5894 28.1781 24.8056C29.2609 24.9528 30.2708 25.158 31.1718 25.4166V22.8324C31.1718 22.2209 31.5769 21.7079 32.1495 21.4931C34.8782 20.4693 35.7773 19.369 36 18.9633Z" fill="#2D7775"/>
</svg>
